name rise42.5664peak47.7979fall81.9185.mot
datacolumns 19
datarows 14
range 21.07824800000000 21.09991400000000
endheader
time	ground_force1_vx	ground_force1_vy	ground_force1_vz	ground_force1_px	ground_force1_py	ground_force1_pz	ground_force2_vx	ground_force2_vy	ground_force2_vz	ground_force2_px	ground_force2_py	ground_force2_pz	ground_torque1_x	ground_torque1_y	ground_torque1_z	ground_torque2_x	ground_torque2_y	ground_torque2_z	
21.07824800000000	-32.75387700000000	777.15360099999998	42.04459700000000	0.12021300000000	0.00000000000000	0.08105900000000	-5.95128800000000	49.93156200000000	6.13486600000000	0.33162300000000	0.00000000000000	-0.09199500000000	0.00000000000000	17.17756300000000	0.00000000000000	0.00000000000000	3.24713500000000	0.00000000000000	
21.07991600000000	-33.12508200000000	775.80580199999997	41.91819000000000	0.11950900000000	0.00000000000000	0.08098100000000	-6.36579200000000	55.89916300000000	6.70475600000000	0.33594600000000	0.00000000000000	-0.09210800000000	0.00000000000000	17.10588300000000	0.00000000000000	0.00000000000000	3.61305200000000	0.00000000000000	
21.08158200000000	-33.50880100000000	774.37481000000002	41.77285100000000	0.11881700000000	0.00000000000000	0.08090000000000	-6.68805100000000	61.69033400000000	7.21287800000000	0.33997600000000	0.00000000000000	-0.09221300000000	0.00000000000000	17.03282300000000	0.00000000000000	0.00000000000000	3.95700700000000	0.00000000000000	
21.08325600000000	-33.90524700000000	772.85816100000000	41.60819600000000	0.11813700000000	0.00000000000000	0.08081700000000	-6.91339100000000	67.26697600000000	7.65410600000000	0.34373600000000	0.00000000000000	-0.09231200000000	0.00000000000000	16.95843700000000	0.00000000000000	0.00000000000000	4.27518200000000	0.00000000000000	
21.08493400000000	-34.31459100000000	771.25333300000000	41.42387700000000	0.11746700000000	0.00000000000000	0.08073000000000	-7.04144200000000	72.61548999999999	8.02704700000000	0.34724900000000	0.00000000000000	-0.09240700000000	0.00000000000000	16.88277600000000	0.00000000000000	0.00000000000000	4.56565300000000	0.00000000000000	
21.08658900000000	-34.73695900000000	769.55775400000005	41.21958100000000	0.11680700000000	0.00000000000000	0.08064100000000	-7.07550200000000	77.74416600000001	8.33354800000000	0.35053100000000	0.00000000000000	-0.09249900000000	0.00000000000000	16.80588800000000	0.00000000000000	0.00000000000000	4.82822000000000	0.00000000000000	
21.08824900000000	-35.17243000000000	767.76880000000006	40.99503100000000	0.11615700000000	0.00000000000000	0.08055000000000	-7.02171500000000	82.67922500000000	8.57802600000000	0.35359900000000	0.00000000000000	-0.09259000000000	0.00000000000000	16.72781800000000	0.00000000000000	0.00000000000000	5.06412100000000	0.00000000000000	
21.08991800000000	-35.62103100000000	765.88380600000005	40.74999200000000	0.11551700000000	0.00000000000000	0.08045600000000	-6.88816400000000	87.46008300000000	8.76669900000000	0.35646500000000	0.00000000000000	-0.09268100000000	0.00000000000000	16.64860800000000	0.00000000000000	0.00000000000000	5.27567300000000	0.00000000000000	
21.09158700000000	-36.08274000000000	763.90005900000006	40.48426400000000	0.11488600000000	0.00000000000000	0.08036000000000	-6.68395600000000	92.13435100000000	8.90680900000000	0.35914100000000	0.00000000000000	-0.09277300000000	0.00000000000000	16.56829700000000	0.00000000000000	0.00000000000000	5.46588500000000	0.00000000000000	
21.09325700000000	-36.55748000000000	761.81481299999996	40.19769300000000	0.11426300000000	0.00000000000000	0.08026100000000	-6.41839600000000	96.75303200000000	9.00588900000000	0.36163900000000	0.00000000000000	-0.09286700000000	0.00000000000000	16.48691900000000	0.00000000000000	0.00000000000000	5.63807900000000	0.00000000000000	
21.09492600000000	-37.04511700000000	759.62528499999996	39.89016100000000	0.11364700000000	0.00000000000000	0.08016000000000	-6.10028300000000	101.36626800000001	9.07114000000000	0.36396600000000	0.00000000000000	-0.09296300000000	0.00000000000000	16.40450800000000	0.00000000000000	0.00000000000000	5.79554800000000	0.00000000000000	
21.09658900000000	-37.54546300000000	757.32866500000000	39.56159800000000	0.11303800000000	0.00000000000000	0.08005700000000	-5.73736800000000	106.01986500000000	9.10893300000000	0.36613100000000	0.00000000000000	-0.09306300000000	0.00000000000000	16.32109200000000	0.00000000000000	0.00000000000000	5.94128000000000	0.00000000000000	
21.09825200000000	-38.05826700000000	754.92211699999996	39.21197500000000	0.11243400000000	0.00000000000000	0.07995200000000	-5.33599600000000	110.75273600000000	9.12446600000000	0.36814000000000	0.00000000000000	-0.09316600000000	0.00000000000000	16.23669600000000	0.00000000000000	0.00000000000000	6.07774600000000	0.00000000000000	
21.09991400000000	-38.58321800000000	752.40279099999998	38.84130800000000	0.11183600000000	0.00000000000000	0.07984400000000	-4.90091100000000	115.59530300000000	9.12156900000000	0.37000200000000	0.00000000000000	-0.09327300000000	0.00000000000000	16.15134400000000	0.00000000000000	0.00000000000000	6.20676700000000	0.00000000000000	
